inDegrees=yes
name=ik_MT_01200452_orientations.mot
DataType=double
version=3
OpenSimVersion=4.3-2021-08-27-4bc7ad9
endheader
time	pelvis_tilt	pelvis_list	pelvis_rotation	pelvis_tx	pelvis_ty	pelvis_tz	hip_flexion_r	hip_adduction_r	hip_rotation_r	knee_angle_r	knee_angle_r_beta	ankle_angle_r	subtalar_angle_r	mtp_angle_r	hip_flexion_l	hip_adduction_l	hip_rotation_l	knee_angle_l	knee_angle_l_beta	ankle_angle_l	subtalar_angle_l	mtp_angle_l	lumbar_extension	lumbar_bending	lumbar_rotation	arm_flex_r	arm_add_r	arm_rot_r	elbow_flex_r	pro_sup_r	wrist_flex_r	wrist_dev_r	arm_flex_l	arm_add_l	arm_rot_l	elbow_flex_l	pro_sup_l	wrist_flex_l	wrist_dev_l
12.14999999999979	1.867161245162888	1.162040532916585	-25.23019593453246	0	0.9399999999999999	0	-5.896666091120435	1.253372860323652	3.04410867219086	11.14751328644142	0.1945608102582165	7.621238880395471	-0.3852932016761129	0	23.04305094950588	-3.585235545502823	-3.653612850287662	1.945052165325238	0.03394756440797048	3.753832219268816	1.534194662056966	0	-5.569663464045761	-0.7395985701024531	7.671239244810022	0	-14.99999922785726	0	75.00017584614541	45.00000025534055	0	5.000000137526114	0	-14.99999922785726	0	75.00017584614541	45.00000025534055	0	5.000000137526114
12.15999999999979	1.826005027667208	0.8797206483942136	-25.81412790456791	0	0.9399999999999999	0	-6.376959531111952	1.172202226538604	3.369202985652482	11.48568625491352	0.2004630419992977	7.987277804353491	0.02484789773756134	0	22.83213081078827	-4.073411393230095	-3.364746780899481	0.2771007024717603	0.004836319617721407	4.971592060258177	1.808142229874757	0	-5.660184203969965	-0.544566300521891	7.987856403600412	0	-14.9999992282919	0	75.00017584614541	45.00000025534055	0	5.000000137526114	0	-14.9999992282919	0	75.00017584614541	45.00000025534055	0	5.000000137526114
12.16999999999978	1.781329251261813	0.6037784701449546	-26.43724602039041	0	0.9399999999999999	0	-6.810317375544731	1.053871885989409	3.737447008867212	11.90391760199528	0.2077625560409256	8.362403002378622	0.4422093615243795	0	23.25805162650277	-4.426697175087135	-2.997921599919723	0.1219435819086483	0.002128317005981304	6.753964557663157	1.460682025450202	0	-5.753418273570941	-0.3552112910527002	8.358865480750667	0	-14.99999922875043	0	75.00017584614541	45.00000025534055	0	5.000000137526114	0	-14.99999922875043	0	75.00017584614541	45.00000025534055	0	5.000000137526114
12.17999999999978	1.707550270080441	0.3977195871404894	-27.06248322527932	0	0.9399999999999999	0	-7.153988244384432	0.8678462948461676	4.071936383944362	12.40086037787149	0.2164358436739656	8.736226156507632	0.8446650176040038	0	23.59026439899823	-4.492938184444687	-2.591999762604411	0.09371192614165759	0.001635581659557671	8.381829212622137	0.8622205034015138	0	-5.80965923607573	-0.2250791494700114	8.728925648193826	0	-14.99999922918629	0	75.00017584614541	45.00000025534055	0	5.000000137526114	0	-14.99999922918629	0	75.00017584614541	45.00000025534055	0	5.000000137526114
12.18999999999978	1.666037937353166	0.2364666465128924	-27.68132211497579	0	0.9399999999999999	0	-7.441696175023955	0.6369002765154398	4.384626233226564	13.03327849664219	0.2274736220957829	9.132616474167762	1.229496397886018	0	23.67075859751254	-4.301159221804243	-2.461884424075512	0.0876572860533311	0.001529908254993134	9.536765902930934	0.4404836049896703	0	-5.870020720708983	-0.154003769236487	9.08270112067429	0	-14.99999922966431	0	75.00017584614541	45.00000025534055	0	5.000000137526114	0	-14.99999922966431	0	75.00017584614541	45.00000025534055	0	5.000000137526114
12.19999999999978	1.614873958963289	0.1425261775713514	-28.24708190896269	0	0.9399999999999999	0	-7.654890427252536	0.3345876840686451	4.656782772024767	13.72124617589458	0.2394809232460415	9.502858901399655	1.57024738500751	0	23.67498708864041	-4.00982164992356	-2.696319651821411	0.08795879472151082	0.001535170573976173	9.953452313073107	0.3465093335304948	0	-5.942216401763944	-0.1388531447259406	9.400558874377172	0	-14.99999923004004	0	75.00017584614541	45.00000025534055	0	5.000000137526114	0	-14.99999923004004	0	75.00017584614541	45.00000025534055	0	5.000000137526114
12.20999999999978	1.596412128677255	0.1132911585459895	-28.83101118627589	0	0.9399999999999999	0	-7.791277211349374	-0.04205387711091071	4.93437288970572	14.55138828447698	0.2539696363002525	9.860502917639819	1.868173219504058	0	23.58846890000687	-3.720046715242749	-3.025734247472302	0.09540418732801549	0.001665117189063322	9.778363542369943	0.3030302311599866	0	-5.987082231469405	-0.2112683182405667	9.717979732947406	0	-14.99999923046552	0	75.00017584614541	45.00000025534055	0	5.000000137526114	0	-14.99999923046552	0	75.00017584614541	45.00000025534055	0	5.000000137526114
12.21999999999978	1.565522789985506	0.1558187545361779	-29.418541353388	0	0.9399999999999999	0	-7.857972482058517	-0.4741731172401871	5.169211818874429	15.44756580258868	0.2696108846736529	10.17381125793127	2.140114678000073	0	23.36971953252835	-3.484857805440031	-3.121890445329977	0.1312627457735753	0.00229096709895716	9.45157629936508	-0.09378991930242785	0	-5.965347516293174	-0.3542080087437924	10.0256194194277	0	-14.99999923090423	0	75.00017584614541	45.00000025534055	0	5.000000137526114	0	-14.99999923090423	0	75.00017584614541	45.00000025534055	0	5.000000137526114
12.22999999999978	1.535857144010027	0.2373397763653283	-30.00027182818049	0	0.9399999999999999	0	-7.893738192623575	-0.945769512121196	5.37555053399452	16.35709310078978	0.2854851306640303	10.38300082223065	2.429494189914159	0	22.9865612150784	-3.378603369085023	-2.927810081191172	0.3192315367006258	0.005571641391627036	7.983159320511271	-1.019890740062196	0	-5.884230402759698	-0.532599452888104	10.31719934905066	0	-14.99999923128183	0	75.00017584614541	45.00000025534055	0	5.000000137526114	0	-14.99999923128183	0	75.00017584614541	45.00000025534055	0	5.000000137526114
12.23999999999978	1.519210394639351	0.3211560890917629	-30.58270145704955	0	0.9399999999999999	0	-7.965777087115926	-1.440383920250149	5.554179350172646	17.25857402892951	0.3012189410040031	10.48910386902182	2.724615894264713	0	23.05470348692888	-3.165147981040549	-2.774149760482251	1.621378288747146	0.02829838955898903	7.630503975924495	-2.108262431325248	0	-5.750983424682907	-0.7177620607296203	10.59870299802449	0	-14.99999923222855	0	75.00017584614541	45.00000025534055	0	5.000000137526114	0	-14.99999923222855	0	75.00017584614541	45.00000025534055	0	5.000000137526114
12.24999999999978	1.563278666246841	0.3765899040204613	-31.12950321128478	0	0.9399999999999999	0	-8.094224472844139	-1.980878188230553	5.713783466635332	18.16911305429952	0.3171108449646098	10.49439832178733	3.048506332613741	0	23.34007380709566	-2.785381398576066	-2.79518365396364	3.329827098298002	0.058116446387429	7.1188655310922	-2.947990808865143	0	-5.683658693594969	-0.9028087876042528	10.85159545183178	0	-14.99999923646722	0	75.00017584614541	45.00000025534055	0	5.000000137526114	0	-14.99999923646722	0	75.00017584614541	45.00000025534055	0	5.000000137526114
12.25999999999978	1.657877970495578	0.3619864513185926	-31.64266759199651	0	0.9399999999999999	0	-8.339570384396737	-2.480101661021177	5.82761627844677	19.04565791145321	0.3324094387633652	10.37999814841141	3.427048702617853	0	23.41223898977735	-2.581241259173472	-2.934295401848989	4.058380623320692	0.07083210417608583	5.263530829579966	-3.55055712975604	0	-5.65996082378718	-1.052256971967127	11.05957010963306	0	-14.99999923962291	0	75.00017584614541	45.00000025534055	0	5.000000137526114	0	-14.99999923962291	0	75.00017584614541	45.00000025534055	0	5.000000137526114
12.26999999999978	1.858493076596951	0.3508569118267318	-32.12467825986938	0	0.9399999999999999	0	-8.62527586074388	-3.050130334633635	5.860334813156848	20.00720637986284	0.3491916254546218	10.07475423335458	3.8244316412908	0	23.14341914603441	-2.475886469251621	-3.480012565096934	4.15860294236612	0.07258131362741278	2.880475983801563	-3.520191505450187	0	-5.722173843835059	-1.253294650790014	11.20567339162454	0	-14.99999924211019	0	75.00017584614541	45.00000025534055	0	5.000000137526114	0	-14.99999924211019	0	75.00017584614541	45.00000025534055	0	5.000000137526114
